<svg xmlns="http://www.w3.org/2000/svg" xmlns:xlink="http://www.w3.org/1999/xlink" viewBox="0 0 829.68 245.9"><defs><style>.cls-1{mask:url(#mask);filter:url(#luminosity-noclip-2);}.cls-2{mix-blend-mode:multiply;fill:url(#linear-gradient);}.cls-3{fill:#fff;}.cls-4{fill:#a6a6a6;}.cls-5{mask:url(#mask-2);}.cls-6{fill:url(#linear-gradient-2);}.cls-7{filter:url(#luminosity-noclip);}</style><filter id="luminosity-noclip" x="387.35" y="-7700.93" width="442.33" height="32766" filterUnits="userSpaceOnUse" color-interpolation-filters="sRGB"><feFlood flood-color="#fff" result="bg"/><feBlend in="SourceGraphic" in2="bg"/></filter><mask id="mask" x="387.35" y="-7700.93" width="442.33" height="32766" maskUnits="userSpaceOnUse"><g class="cls-7"/></mask><linearGradient id="linear-gradient" x1="608.51" y1="1005.56" x2="608.51" y2="783.91" gradientTransform="translate(0 -759)" gradientUnits="userSpaceOnUse"><stop offset="0" stop-color="#1a1a1a"/><stop offset="0.12" stop-color="#262626"/><stop offset="0.31" stop-color="#3a3a3a"/><stop offset="0.53" stop-color="#515151"/><stop offset="0.78" stop-color="#6b6b6b"/><stop offset="1" stop-color="#828282"/></linearGradient><filter id="luminosity-noclip-2" x="387.35" y="0" width="442.33" height="245.9" filterUnits="userSpaceOnUse" color-interpolation-filters="sRGB"><feFlood flood-color="#fff" result="bg"/><feBlend in="SourceGraphic" in2="bg"/></filter><mask id="mask-2" x="387.35" y="0" width="442.33" height="245.9" maskUnits="userSpaceOnUse"><g class="cls-1"><path class="cls-2" d="M800.6,0H387.35L549.21,245.9H800.6a29.11,29.11,0,0,0,29.08-29.05V29.06A29.12,29.12,0,0,0,800.6,0Z"/></g></mask><linearGradient id="linear-gradient-2" x1="608.51" y1="1005.56" x2="608.51" y2="783.91" gradientTransform="translate(0 -759)" gradientUnits="userSpaceOnUse"><stop offset="0" stop-color="#1a1a1a"/><stop offset="0.12" stop-color="#212121"/><stop offset="0.31" stop-color="#353535"/><stop offset="0.53" stop-color="#575757"/><stop offset="0.78" stop-color="#858585"/><stop offset="1" stop-color="#b3b3b3"/></linearGradient></defs><g id="Calque_2" data-name="Calque 2"><g id="Calque_2-2" data-name="Calque 2"><path class="cls-3" d="M824.17,216.87a23.55,23.55,0,0,1-23.57,23.55H29.08A23.58,23.58,0,0,1,5.47,216.87V29.05A23.62,23.62,0,0,1,29.08,5.47H800.59a23.58,23.58,0,0,1,23.58,23.58V216.87Z"/><path class="cls-4" d="M800.6,245.9H29.08A29.09,29.09,0,0,1,0,216.87V29.06A29.11,29.11,0,0,1,29.08,0H800.59a29.12,29.12,0,0,1,29.08,29.06V216.87a29.09,29.09,0,0,1-29.07,29Z"/><path d="M824.17,216.87a23.55,23.55,0,0,1-23.57,23.55H29.08A23.58,23.58,0,0,1,5.47,216.87V29.05A23.62,23.62,0,0,1,29.08,5.47H800.59a23.58,23.58,0,0,1,23.58,23.58V216.87Z"/><path class="cls-3" d="M185.26,121.65c-.18-19.82,16.23-29.46,17-29.91C193,78.2,178.54,76.35,173.48,76.2c-12.09-1.27-23.82,7.24-30,7.24s-15.77-7.12-26-6.91c-13.16.2-25.47,7.82-32.22,19.65-13.94,24.13-3.55,59.58,9.8,79.07,6.68,9.56,14.48,20.22,24.7,19.84,10-.4,13.72-6.36,25.78-6.36s15.45,6.36,25.87,6.12c10.72-.16,17.48-9.59,23.92-19.23a78.72,78.72,0,0,0,10.94-22.27C206,153.26,185.47,145.4,185.26,121.65Z"/><path class="cls-3" d="M165.58,63.37c5.38-6.72,9-15.86,8-25.14-7.78.34-17.5,5.38-23.11,12-4.95,5.79-9.38,15.29-8.24,24.22C151,75.05,160,70,165.58,63.37Z"/><g class="cls-5"><path class="cls-6" d="M800.6,0H387.35L549.21,245.9H800.6a29.11,29.11,0,0,0,29.08-29.05V29.06A29.12,29.12,0,0,0,800.6,0Z"/></g><path class="cls-3" d="M330,193.72H316l-7.65-24H281.79l-7.29,24H260.9l26.35-81.83h16.27ZM306.07,159.6l-6.92-21.37Q298.06,135,295,122.82h-.25q-1.21,5.22-3.89,15.41l-6.8,21.37Z"/><path class="cls-3" d="M397.62,163.49q0,15.06-8.18,23.79a24,24,0,0,1-18.19,7.77q-11.73,0-16.85-8.36v31H341.29V154.11q0-9.45-.48-19.4h11.53l.73,9.36h.24q6.57-10.57,19.91-10.57a21.85,21.85,0,0,1,17.42,8.25Q397.62,150,397.62,163.49Zm-13.36.48q0-8.61-3.88-14.21A13.45,13.45,0,0,0,369,143.94a13.67,13.67,0,0,0-8.8,3.21A15,15,0,0,0,355,155.6a17.29,17.29,0,0,0-.6,4v9.84a15.77,15.77,0,0,0,3.94,10.87,13.13,13.13,0,0,0,10.26,4.44A13.45,13.45,0,0,0,380.13,179Q384.26,173.32,384.26,164Z"/><path class="cls-3" d="M465.48,163.49q0,15.06-8.17,23.79a24,24,0,0,1-18.2,7.77q-11.72,0-16.85-8.36v31H409.15V154.11q0-9.45-.48-19.4H420.2l.73,9.36h.24q6.56-10.57,19.92-10.57a21.89,21.89,0,0,1,17.42,8.25Q465.47,150,465.48,163.49Zm-13.36.48q0-8.61-3.89-14.21a13.4,13.4,0,0,0-11.4-5.82,13.71,13.71,0,0,0-8.81,3.21,14.93,14.93,0,0,0-5.15,8.45,17.48,17.48,0,0,0-.62,4v9.84a15.82,15.82,0,0,0,3.94,10.87,13.12,13.12,0,0,0,10.27,4.44A13.44,13.44,0,0,0,448,179Q452.13,173.32,452.12,164Z"/><path class="cls-3" d="M541.36,170.77q0,10.44-7.27,17-8,7.15-22.29,7.16-13.21,0-21.19-5.1l3-10.92a36.55,36.55,0,0,0,18.94,5.1q7.41,0,11.53-3.34a10.89,10.89,0,0,0,4.14-8.91,11.43,11.43,0,0,0-3.41-8.39c-2.27-2.26-6-4.37-11.29-6.3q-21.49-8-21.5-23.44a20.69,20.69,0,0,1,7.59-16.51q7.59-6.45,20.1-6.44c7.44,0,13.65,1.29,18.57,3.88L535,125.25a32.42,32.42,0,0,0-15.72-3.76c-4.62,0-8.25,1.13-10.85,3.4a9.74,9.74,0,0,0-3.29,7.41,10.07,10.07,0,0,0,3.77,8q3.27,2.9,11.9,6.3c7,2.85,12.22,6.15,15.53,9.95A20.74,20.74,0,0,1,541.36,170.77Z"/><path class="cls-3" d="M584.82,144.55H570.37V173.2q0,10.94,7.65,10.92a23.12,23.12,0,0,0,5.82-.61l.36,10A29.8,29.8,0,0,1,574,194.92q-7.77,0-12.14-4.74t-4.38-15.91V144.53h-8.61v-9.84h8.61v-10.8L570.37,120v14.69h14.45Z"/><path class="cls-3" d="M649.89,163.73q0,13.61-7.77,22.34-8.13,9-21.61,9-13,0-20.71-8.6t-7.71-21.73q0-13.72,7.95-22.46t21.44-8.75q13,0,20.88,8.63Q649.91,150.5,649.89,163.73Zm-13.59.3a26.45,26.45,0,0,0-3.51-13.92c-2.75-4.68-6.69-7-11.78-7a13.17,13.17,0,0,0-12,7,26.86,26.86,0,0,0-3.52,14.17A26.35,26.35,0,0,0,609,178.21c2.83,4.68,6.78,7,11.91,7s8.94-2.39,11.78-7.14A26.53,26.53,0,0,0,636.3,164Z"/><path class="cls-3" d="M692.52,146.24a22.84,22.84,0,0,0-4.13-.36,12.37,12.37,0,0,0-10.69,5.23,19.65,19.65,0,0,0-3.27,11.65v31H661.32V153.3q0-10.2-.38-18.58h11.42l.48,11.29h.36a20.22,20.22,0,0,1,6.56-9.35,15.83,15.83,0,0,1,9.47-3.16,20.34,20.34,0,0,1,3.28.24v12.5Z"/><path class="cls-3" d="M751.15,161.43a30.44,30.44,0,0,1-.48,5.94H711.34c.15,5.83,2.06,10.3,5.71,13.37q5,4.11,12.86,4.12a43.37,43.37,0,0,0,15.92-2.79l2,9.1a49.26,49.26,0,0,1-19.78,3.64q-13.73,0-21.56-8.06t-7.83-21.67q0-13.34,7.3-22.21,7.63-9.47,20.63-9.47,12.75,0,19.31,9.47Q751.14,150.37,751.15,161.43ZM738.65,158A17.79,17.79,0,0,0,736.11,148c-2.27-3.66-5.77-5.48-10.45-5.48a12.43,12.43,0,0,0-10.43,5.35A19.59,19.59,0,0,0,711.35,158Z"/><path class="cls-3" d="M299.75,82.6h-6.87l-3.76-11.81H276.06L272.47,82.6h-6.68l12.95-40.22h8ZM288,65.83l-3.4-10.5c-.36-1.08-1-3.58-2-7.58h-.12c-.42,1.73-1,4.24-1.91,7.58l-3.34,10.5Z"/><path class="cls-3" d="M332.13,53.6l-11,29h-6.27l-10.62-29h6.92l5,15.34c.83,2.56,1.55,5,2.08,7.33h.18c.48-2.08,1.19-4.53,2.08-7.33l4.9-15.34Z"/><path class="cls-3" d="M355.51,82.6,355,79.26h-.18a9.88,9.88,0,0,1-8.47,4c-5.19,0-8.89-3.64-8.89-8.54,0-7.15,6.2-10.86,16.94-10.86v-.53c0-3.82-2-5.73-6-5.73a13.56,13.56,0,0,0-7.58,2.15l-1.31-4.24a18.61,18.61,0,0,1,10-2.51c7.57,0,11.4,4,11.4,12V75.68a42.56,42.56,0,0,0,.42,6.93Zm-.9-14.44c-7.16,0-10.74,1.73-10.74,5.84,0,3,1.85,4.54,4.41,4.54a6.17,6.17,0,0,0,6.33-5.91Z"/><path class="cls-3" d="M375.24,48.82a3.85,3.85,0,1,1,4.06-3.88A3.78,3.78,0,0,1,375.24,48.82Zm3.35,33.78h-6.45v-29h6.45Z"/><path class="cls-3" d="M396.48,82.6H390V40.29h6.44Z"/><path class="cls-3" d="M423.87,82.6l-.48-3.34h-.18a9.88,9.88,0,0,1-8.47,4c-5.19,0-8.9-3.64-8.9-8.54,0-7.15,6.21-10.86,17-10.86v-.53c0-3.82-2-5.73-6-5.73a13.56,13.56,0,0,0-7.58,2.15l-1.32-4.24a18.61,18.61,0,0,1,10-2.51c7.58,0,11.4,4,11.4,12V75.68a45.11,45.11,0,0,0,.41,6.92ZM423,68.16c-7.16,0-10.74,1.73-10.74,5.84,0,3,1.85,4.54,4.41,4.54A6.17,6.17,0,0,0,423,72.63Z"/><path class="cls-3" d="M455.35,83.26a9.85,9.85,0,0,1-9.12-5.14h-.13l-.37,4.48h-5.49c.18-2.32.24-5,.24-7.82V40.29h6.45V57.84h.13c1.91-3.22,5-4.83,9.24-4.83,7,0,11.88,6,11.88,14.68C468.18,76.69,462.75,83.26,455.35,83.26ZM454,58.07a7.41,7.41,0,0,0-7.1,7.7v5.07a7.1,7.1,0,0,0,7,7.28c4.83,0,7.7-3.93,7.7-10.2C461.62,62.07,458.63,58.07,454,58.07Z"/><path class="cls-3" d="M484.15,82.6h-6.43V40.29h6.43Z"/><path class="cls-3" d="M519.23,69.65H499.89c.13,5.49,3.76,8.59,9.13,8.59a21.82,21.82,0,0,0,7.82-1.37l1,4.48a24.23,24.23,0,0,1-9.72,1.79c-9.08,0-14.45-5.74-14.45-14.62s5.5-15.58,13.72-15.58c7.4,0,12.06,5.49,12.06,13.79A12,12,0,0,1,519.23,69.65Zm-5.91-4.59c0-4.48-2.26-7.64-6.38-7.64-3.71,0-6.62,3.22-7.05,7.64Z"/><path class="cls-3" d="M558.29,83.26c-8.47,0-14-6.33-14-14.92,0-9,5.61-15.34,14.45-15.34,8.34,0,14,6,14,14.87C572.74,76.93,567,83.26,558.29,83.26Zm.25-25.54c-4.66,0-7.64,4.35-7.64,10.44s3.05,10.32,7.58,10.32,7.57-4.65,7.57-10.45S563.07,57.72,558.54,57.72Z"/><path class="cls-3" d="M607.39,82.6H601V66c0-5.13-2-7.7-5.85-7.7s-6.45,3.28-6.45,7.1V82.6h-6.44V61.89c0-2.56-.07-5.31-.24-8.29h5.67l.3,4.47h.18A10.4,10.4,0,0,1,597.31,53c6.08,0,10.08,4.65,10.08,12.23V82.6Z"/><path class="cls-3" d="M649.55,58.43h-7.09V72.52q0,5.37,3.75,5.37a12.7,12.7,0,0,0,2.87-.3l.18,4.89a14.41,14.41,0,0,1-5,.72c-5.08,0-8.11-2.8-8.11-10.14V58.43h-4.23V53.6h4.23V48.29l6.32-1.91V53.6h7.09Z"/><path class="cls-3" d="M683.68,82.6h-6.45V66.07c0-5.19-2-7.81-5.85-7.81-3.34,0-6.44,2.27-6.44,6.86V82.6h-6.45V40.29h6.45V57.72h.12A9.75,9.75,0,0,1,673.78,53c6.14,0,9.9,4.77,9.9,12.35Z"/><path class="cls-3" d="M716.61,69.65H697.27c.12,5.49,3.75,8.59,9.12,8.59a21.82,21.82,0,0,0,7.82-1.37l1,4.48a24.28,24.28,0,0,1-9.73,1.79c-9.08,0-14.45-5.74-14.45-14.62s5.5-15.58,13.72-15.58c7.4,0,12.06,5.49,12.06,13.79A12.62,12.62,0,0,1,716.61,69.65Zm-5.91-4.59c0-4.48-2.27-7.64-6.39-7.64-3.7,0-6.62,3.22-7,7.64Z"/></g></g></svg>