<svg width="2048" height="2048" viewBox="0 0 2048 2048" fill="none" xmlns="http://www.w3.org/2000/svg">
<g filter="url(#filter0_i)">
<rect x="203" y="203" width="1641" height="1641" rx="350" fill="url(#paint0_linear)"/>
<rect x="203" y="203" width="1641" height="1641" rx="350" fill="url(#paint1_linear)" fill-opacity="0.26" style="mix-blend-mode:soft-light"/>
</g>
<mask id="mask0" mask-type="alpha" maskUnits="userSpaceOnUse" x="203" y="203" width="1641" height="1641">
<rect x="203" y="203" width="1641" height="1641" rx="350" fill="url(#paint2_linear)"/>
<rect x="203" y="203" width="1641" height="1641" rx="350" fill="url(#paint3_linear)" fill-opacity="0.26"/>
</mask>
<g mask="url(#mask0)">
<path d="M454.104 2054.22V415.24L654.104 584V2054.22H454.104Z" fill="url(#paint4_linear)"/>
<path d="M1408.34 1477.16L453.659 690.499L453.655 415L1533.07 1328.51L1408.34 1477.16Z" fill="url(#paint5_linear)"/>
<path d="M1593.79 2054.22V415.24L1393.79 584V2054.22H1593.79Z" fill="url(#paint6_linear)"/>
<path d="M639.557 1477.16L1594.24 690.499L1594.24 415L514.825 1328.51L639.557 1477.16Z" fill="url(#paint7_linear)"/>
</g>
<defs>
<filter id="filter0_i" x="203" y="203" width="1641" height="1645" filterUnits="userSpaceOnUse" color-interpolation-filters="sRGB">
<feFlood flood-opacity="0" result="BackgroundImageFix"/>
<feBlend mode="normal" in="SourceGraphic" in2="BackgroundImageFix" result="shape"/>
<feColorMatrix in="SourceAlpha" type="matrix" values="0 0 0 0 0 0 0 0 0 0 0 0 0 0 0 0 0 0 127 0" result="hardAlpha"/>
<feOffset dy="4"/>
<feGaussianBlur stdDeviation="2"/>
<feComposite in2="hardAlpha" operator="arithmetic" k2="-1" k3="1"/>
<feColorMatrix type="matrix" values="0 0 0 0 1 0 0 0 0 1 0 0 0 0 1 0 0 0 0.1 0"/>
<feBlend mode="normal" in2="shape" result="effect1_innerShadow"/>
</filter>
<linearGradient id="paint0_linear" x1="1023.5" y1="203" x2="1023.5" y2="1844" gradientUnits="userSpaceOnUse">
<stop stop-color="#FFD600"/>
<stop offset="1" stop-color="#FF8A00"/>
</linearGradient>
<linearGradient id="paint1_linear" x1="389.5" y1="287.5" x2="1719" y2="1754" gradientUnits="userSpaceOnUse">
<stop stop-color="white"/>
<stop offset="1"/>
</linearGradient>
<linearGradient id="paint2_linear" x1="1023.5" y1="203" x2="1023.5" y2="1844" gradientUnits="userSpaceOnUse">
<stop stop-color="#F5D31F"/>
<stop offset="1" stop-color="#CE5D0B"/>
</linearGradient>
<linearGradient id="paint3_linear" x1="389.5" y1="287.5" x2="1719" y2="1754" gradientUnits="userSpaceOnUse">
<stop stop-color="white"/>
<stop offset="1"/>
</linearGradient>
<linearGradient id="paint4_linear" x1="554.104" y1="415.24" x2="554.104" y2="2054.22" gradientUnits="userSpaceOnUse">
<stop stop-color="white"/>
<stop offset="1" stop-color="white" stop-opacity="0"/>
</linearGradient>
<linearGradient id="paint5_linear" x1="385.828" y1="495.834" x2="1469.07" y2="1404.78" gradientUnits="userSpaceOnUse">
<stop stop-color="white"/>
<stop offset="1" stop-color="white" stop-opacity="0"/>
</linearGradient>
<linearGradient id="paint6_linear" x1="1493.79" y1="415.24" x2="1493.79" y2="2054.22" gradientUnits="userSpaceOnUse">
<stop stop-color="white"/>
<stop offset="1" stop-color="white" stop-opacity="0"/>
</linearGradient>
<linearGradient id="paint7_linear" x1="1662.07" y1="495.834" x2="578.827" y2="1404.78" gradientUnits="userSpaceOnUse">
<stop stop-color="white"/>
<stop offset="1" stop-color="white" stop-opacity="0"/>
</linearGradient>
</defs>
</svg>
