<svg xmlns="http://www.w3.org/2000/svg" xmlns:xlink="http://www.w3.org/1999/xlink" viewBox="0 0 829.67 242.97"><defs><style>.cls-1{fill:#a6a6a6;}.cls-2,.cls-3{fill:#fff;}.cls-2{stroke:#fff;stroke-miterlimit:10;stroke-width:0.16px;}.cls-4{fill:url(#linear-gradient);}.cls-5{fill:url(#linear-gradient-2);}.cls-6{fill:url(#linear-gradient-3);}.cls-7{fill:url(#linear-gradient-4);}</style><linearGradient id="linear-gradient" x1="143.4" y1="-371.53" x2="40.5" y2="-268.63" gradientTransform="matrix(1, 0, 0, -0.99, -9.77, -178.01)" gradientUnits="userSpaceOnUse"><stop offset="0" stop-color="#00a0ff"/><stop offset="0.01" stop-color="#00a1ff"/><stop offset="0.26" stop-color="#00beff"/><stop offset="0.51" stop-color="#00d2ff"/><stop offset="0.76" stop-color="#00dfff"/><stop offset="1" stop-color="#00e3ff"/></linearGradient><linearGradient id="linear-gradient-2" x1="217.19" y1="-302.3" x2="68.84" y2="-302.3" gradientTransform="matrix(1, 0, 0, -0.99, -9.77, -178.01)" gradientUnits="userSpaceOnUse"><stop offset="0" stop-color="#ffe000"/><stop offset="0.41" stop-color="#ffbd00"/><stop offset="0.78" stop-color="orange"/><stop offset="1" stop-color="#ff9c00"/></linearGradient><linearGradient id="linear-gradient-3" x1="110.8" y1="-339.38" x2="-28.73" y2="-199.85" gradientTransform="matrix(1, 0, 0, -0.99, -9.77, -178.01)" gradientUnits="userSpaceOnUse"><stop offset="0" stop-color="#ff3a44"/><stop offset="1" stop-color="#c31162"/></linearGradient><linearGradient id="linear-gradient-4" x1="3.35" y1="-372.69" x2="65.65" y2="-310.38" gradientTransform="matrix(1, 0, 0, -0.99, -9.77, -178.01)" gradientUnits="userSpaceOnUse"><stop offset="0" stop-color="#32a071"/><stop offset="0.07" stop-color="#2da771"/><stop offset="0.48" stop-color="#15cf74"/><stop offset="0.8" stop-color="#06e775"/><stop offset="1" stop-color="#00f076"/></linearGradient></defs><g id="Calque_2" data-name="Calque 2"><g id="Layer_1" data-name="Layer 1"><g id="g10"><g id="g12"><path id="path14" d="M798.94,243H30.73A30.66,30.66,0,0,1,0,212.6V30.37A30.65,30.65,0,0,1,30.73,0H798.94a30.65,30.65,0,0,1,30.73,30.37V212.6A30.66,30.66,0,0,1,798.94,243Z"/><path id="path16" class="cls-1" d="M798.94,4.87a25.69,25.69,0,0,1,25.81,25.5V212.6a25.69,25.69,0,0,1-25.81,25.5H30.73A25.69,25.69,0,0,1,4.92,212.6V30.37A25.69,25.69,0,0,1,30.73,4.87H798.94m0-4.87H30.73A30.65,30.65,0,0,0,0,30.37V212.6A30.66,30.66,0,0,0,30.73,243H798.94a30.66,30.66,0,0,0,30.73-30.37V30.37A30.65,30.65,0,0,0,798.94,0Z"/><g id="g18"><path id="path20" class="cls-2" d="M291.41,62.22c0,5.07-1.53,9.14-4.56,12.17q-5.22,5.39-13.57,5.39a18.77,18.77,0,0,1-13.56-5.45,18.34,18.34,0,0,1-5.58-13.59,18.19,18.19,0,0,1,5.58-13.55,18.69,18.69,0,0,1,13.56-5.49,19.51,19.51,0,0,1,7.57,1.54,15,15,0,0,1,5.76,4.06l-3.21,3.21c-2.46-2.88-5.82-4.3-10.12-4.3a14.21,14.21,0,0,0-10.08,4A13.92,13.92,0,0,0,259,60.74a14,14,0,0,0,4.23,10.53,14.3,14.3,0,0,0,10.08,4,14.1,14.1,0,0,0,10.3-4.06,11.34,11.34,0,0,0,3.09-7.38H273.28V59.47h17.86A12.56,12.56,0,0,1,291.41,62.22Z"/></g><g id="g22"><path id="path24" class="cls-2" d="M319.74,47H303V58.55h15.12v4.39H303V74.48h16.77V79H298.22V42.53h21.52Z"/></g><g id="g26"><path id="path28" class="cls-2" d="M339.73,79H335V47H324.69V42.53H350V47H339.73Z"/></g><g id="g30"><path id="path32" class="cls-2" d="M368.35,79V42.53h4.74V79Z"/></g><g id="g34"><path id="path36" class="cls-2" d="M394.1,79h-4.71V47H379.07V42.53h25.36V47H394.1Z"/></g><g id="g38"><path id="path40" class="cls-2" d="M452.38,74.26a19.32,19.32,0,0,1-27,0,18.48,18.48,0,0,1-5.43-13.52,18.48,18.48,0,0,1,5.43-13.52,19.24,19.24,0,0,1,27,0,18.45,18.45,0,0,1,5.46,13.49A18.52,18.52,0,0,1,452.38,74.26Zm-23.53-3.05a14.29,14.29,0,0,0,20,0A14.21,14.21,0,0,0,453,60.74a14.24,14.24,0,0,0-4.11-10.47,14.29,14.29,0,0,0-20,0,14.21,14.21,0,0,0-4.11,10.47A14.17,14.17,0,0,0,428.85,71.21Z"/></g><g id="g42"><path id="path44" class="cls-2" d="M464.47,79V42.53h5.76l17.92,28.33h.2l-.2-7V42.53h4.74V79h-4.95L469.18,49.23H469l.21,7V79Z"/></g><path id="path46" class="cls-3" d="M418.74,132.13c-14.44,0-26.23,10.86-26.23,25.84s11.79,25.83,26.23,25.83S445,172.83,445,158,433.2,132.13,418.74,132.13Zm0,41.49c-7.92,0-14.74-6.46-14.74-15.65s6.82-15.67,14.74-15.67S433.5,148.65,433.5,158,426.66,173.62,418.74,173.62Zm-57.23-41.49c-14.46,0-26.22,10.86-26.22,25.84s11.76,25.83,26.22,25.83,26.23-11,26.23-25.83S376,132.13,361.51,132.13Zm0,41.49c-7.92,0-14.76-6.46-14.76-15.65s6.84-15.67,14.76-15.67,14.74,6.35,14.74,15.67S369.43,173.62,361.51,173.62Zm-68.09-33.57v11H320c-.78,6.13-2.85,10.64-6,13.79-3.87,3.79-9.9,8-20.49,8a29.16,29.16,0,0,1,0-58.32,28.3,28.3,0,0,1,20,7.83l7.83-7.73a38.93,38.93,0,0,0-27.82-11.07c-22.39,0-41.2,18-41.2,40.13S271,183.8,293.42,183.8c12.1,0,21.19-3.92,28.33-11.27,7.32-7.24,9.6-17.41,9.6-25.63a35.77,35.77,0,0,0-.6-6.85Zm278.45,8.51c-2.16-5.78-8.82-16.43-22.39-16.43S524.84,142.6,524.84,158a25.42,25.42,0,0,0,25.93,25.83,26,26,0,0,0,21.79-11.45l-8.91-5.87c-3,4.3-7,7.14-12.88,7.14s-10-2.63-12.66-7.82l35-14.3Zm-35.65,8.6a14.25,14.25,0,0,1,13.65-15.06c4.56,0,8.44,2.25,9.73,5.48ZM507.8,182.23h11.5V106.3H507.8ZM489,137.88h-.38a18.22,18.22,0,0,0-13.74-5.75c-13.1,0-25.06,11.36-25.06,25.92s12,25.75,25.06,25.75a18,18,0,0,0,13.74-5.87H489v3.7c0,9.88-5.34,15.19-14,15.19-7,0-11.38-5-13.17-9.23l-10,4.13A24.93,24.93,0,0,0,475,207c13.48,0,24.85-7.83,24.85-26.9V133.7H489Zm-13.14,35.74c-7.92,0-14.55-6.55-14.55-15.57s6.63-15.75,14.55-15.75,14,6.65,14,15.75S483.64,173.62,475.84,173.62ZM625.67,106.3H598.18v75.93h11.47V153.46h16c12.73,0,25.21-9.11,25.21-23.59S638.37,106.3,625.67,106.3Zm.3,36.6H609.65v-26H626a13,13,0,1,1,0,26ZM696.82,132c-8.28,0-16.89,3.62-20.43,11.63l10.17,4.21c2.19-4.21,6.21-5.58,10.47-5.58,6,0,12,3.53,12.07,9.77v.79a25.53,25.53,0,0,0-12-2.93c-11,0-22.11,6-22.11,17.08,0,10.17,9,16.73,19,16.73,7.72,0,12-3.44,14.65-7.44h.39v5.86h11.07V153C720.17,139.52,710,132,696.82,132Zm-1.38,41.61c-3.75,0-9-1.83-9-6.43,0-5.87,6.51-8.13,12.15-8.13a20.77,20.77,0,0,1,10.48,2.55A13.86,13.86,0,0,1,695.44,173.59Zm65.06-39.94-13.17,32.91h-.4l-13.62-32.91H721l20.47,46-11.68,25.6h12l31.53-71.59ZM657.18,182.23h11.5V106.3h-11.5Z"/><g id="g48"><path id="path64" class="cls-4" d="M64.13,45.79c-1.8,1.87-2.85,4.78-2.85,8.54V188.66c0,3.77,1,6.68,2.85,8.55l.45.41,76.16-75.25V120.6L64.58,45.35Z"/></g><g id="g66"><path id="path78" class="cls-5" d="M166.1,147.47l-25.36-25.1V120.6l25.39-25.1.56.33,30.07,16.91c8.58,4.8,8.58,12.69,0,17.52l-30.07,16.88Z"/></g><g id="g80"><path id="path88" class="cls-6" d="M166.69,147.14l-25.95-25.66L64.13,197.21c2.85,3,7.5,3.31,12.78.35l89.78-50.42"/></g><g id="g90"><path id="path104" class="cls-7" d="M166.69,95.83,76.91,45.4c-5.28-2.93-9.93-2.57-12.78.39l76.61,75.69Z"/></g></g></g></g></g></svg>